<svg width="50" height="50" viewBox="0 0 50 50" fill="none" xmlns="http://www.w3.org/2000/svg">
<g filter="url(#filter0_d_1274_875)">
<rect x="5" y="5" width="40" height="40" rx="20" fill="white"/>
<path d="M32.3261 25.5062C32.5296 25.3318 32.6313 25.2446 32.6686 25.1409C32.7013 25.0498 32.7013 24.9502 32.6686 24.8591C32.6313 24.7554 32.5296 24.6682 32.3261 24.4938L25.2672 18.4433C24.917 18.1431 24.7419 17.9931 24.5937 17.9894C24.4648 17.9862 24.3418 18.0428 24.2603 18.1427C24.1667 18.2576 24.1667 18.4883 24.1667 18.9495V22.5289C22.3878 22.8401 20.7597 23.7415 19.5498 25.0949C18.2307 26.5704 17.501 28.48 17.5 30.4591V30.9691C18.3745 29.9157 19.4663 29.0638 20.7006 28.4716C21.7889 27.9495 22.9653 27.6403 24.1667 27.5588V31.0505C24.1667 31.5117 24.1667 31.7424 24.2603 31.8573C24.3418 31.9572 24.4648 32.0138 24.5937 32.0106C24.7419 32.0069 24.917 31.8569 25.2672 31.5567L32.3261 25.5062Z" stroke="#98A2B3" stroke-width="1.66667" stroke-linecap="round" stroke-linejoin="round"/>
<rect x="5" y="5" width="40" height="40" rx="20" stroke="#D0D5DD" stroke-linecap="round" stroke-linejoin="round" stroke-dasharray="1 3"/>
</g>
<defs>
<filter id="filter0_d_1274_875" x="0.5" y="0.5" width="49" height="49" filterUnits="userSpaceOnUse" color-interpolation-filters="sRGB">
<feFlood flood-opacity="0" result="BackgroundImageFix"/>
<feColorMatrix in="SourceAlpha" type="matrix" values="0 0 0 0 0 0 0 0 0 0 0 0 0 0 0 0 0 0 127 0" result="hardAlpha"/>
<feMorphology radius="4" operator="dilate" in="SourceAlpha" result="effect1_dropShadow_1274_875"/>
<feOffset/>
<feColorMatrix type="matrix" values="0 0 0 0 0.949765 0 0 0 0 0.955804 0 0 0 0 0.967882 0 0 0 1 0"/>
<feBlend mode="normal" in2="BackgroundImageFix" result="effect1_dropShadow_1274_875"/>
<feBlend mode="normal" in="SourceGraphic" in2="effect1_dropShadow_1274_875" result="shape"/>
</filter>
</defs>
</svg>
