<svg width="115" height="58" viewBox="0 0 115 58" fill="none" xmlns="http://www.w3.org/2000/svg">
<g filter="url(#filter0_dd_1274_881)">
<rect x="12" width="85" height="34" rx="8" fill="#101828"/>
<path d="M29.758 14.6719C29.7182 14.2997 29.5506 14.0099 29.2551 13.8026C28.9625 13.5952 28.5819 13.4915 28.1131 13.4915C27.7836 13.4915 27.5009 13.5412 27.2651 13.6406C27.0293 13.7401 26.8489 13.875 26.7239 14.0455C26.5989 14.2159 26.535 14.4105 26.5321 14.6293C26.5321 14.8111 26.5733 14.9687 26.6557 15.1023C26.7409 15.2358 26.856 15.3494 27.0009 15.4432C27.1458 15.5341 27.3063 15.6108 27.4824 15.6733C27.6586 15.7358 27.8361 15.7884 28.0151 15.831L28.8333 16.0355C29.1628 16.1122 29.4796 16.2159 29.7836 16.3466C30.0904 16.4773 30.3645 16.642 30.606 16.8409C30.8503 17.0398 31.0435 17.2798 31.1855 17.5611C31.3276 17.8423 31.3986 18.1719 31.3986 18.5497C31.3986 19.0611 31.2679 19.5114 31.0066 19.9006C30.7452 20.2869 30.3674 20.5895 29.873 20.8082C29.3816 21.0241 28.7864 21.1321 28.0875 21.1321C27.4086 21.1321 26.8191 21.027 26.3191 20.8168C25.8219 20.6065 25.4327 20.2997 25.1515 19.8963C24.873 19.4929 24.7225 19.0014 24.6998 18.4219H26.2551C26.2779 18.7259 26.3716 18.9787 26.5364 19.1804C26.7012 19.3821 26.9157 19.5327 27.1799 19.6321C27.4469 19.7315 27.7452 19.7812 28.0748 19.7812C28.4185 19.7812 28.7196 19.7301 28.9782 19.6278C29.2395 19.5227 29.4441 19.3778 29.5918 19.1932C29.7395 19.0057 29.8148 18.7869 29.8176 18.5369C29.8148 18.3097 29.748 18.1222 29.6174 17.9744C29.4867 17.8239 29.3034 17.6989 29.0676 17.5994C28.8347 17.4972 28.562 17.4062 28.2495 17.3267L27.2566 17.071C26.5378 16.8864 25.9696 16.6065 25.552 16.2315C25.1373 15.8537 24.9299 15.3523 24.9299 14.7273C24.9299 14.2131 25.0691 13.7628 25.3475 13.3764C25.6287 12.9901 26.0108 12.6903 26.4938 12.4773C26.9767 12.2614 27.5236 12.1534 28.1344 12.1534C28.7537 12.1534 29.2963 12.2614 29.7623 12.4773C30.231 12.6903 30.5989 12.9872 30.8659 13.3679C31.133 13.7457 31.2708 14.1804 31.2793 14.6719H29.758ZM34.2825 17.1648V21H32.7399V12.2727H34.2484V15.5668H34.3251C34.4785 15.1974 34.7157 14.9062 35.0368 14.6932C35.3606 14.4773 35.7725 14.3693 36.2725 14.3693C36.7271 14.3693 37.1234 14.4645 37.4615 14.6548C37.7995 14.8452 38.0609 15.1236 38.2456 15.4901C38.4331 15.8565 38.5268 16.304 38.5268 16.8324V21H36.9842V17.071C36.9842 16.6307 36.8706 16.2884 36.6433 16.044C36.4189 15.7969 36.1035 15.6733 35.6973 15.6733C35.4245 15.6733 35.1802 15.733 34.9643 15.8523C34.7512 15.9687 34.5836 16.1378 34.4615 16.3594C34.3422 16.581 34.2825 16.8494 34.2825 17.1648ZM41.9828 21.1321C41.568 21.1321 41.1944 21.0582 40.862 20.9105C40.5325 20.7599 40.2711 20.5384 40.0779 20.2457C39.8876 19.9531 39.7924 19.5923 39.7924 19.1634C39.7924 18.794 39.8606 18.4886 39.997 18.2472C40.1333 18.0057 40.3194 17.8125 40.5552 17.6676C40.791 17.5227 41.0566 17.4134 41.3521 17.3395C41.6504 17.2628 41.9586 17.2074 42.2768 17.1733C42.6603 17.1335 42.9714 17.098 43.21 17.0668C43.4487 17.0327 43.622 16.9815 43.7299 16.9134C43.8407 16.8423 43.8961 16.733 43.8961 16.5852V16.5597C43.8961 16.2386 43.801 15.9901 43.6106 15.8139C43.4203 15.6378 43.1461 15.5497 42.7882 15.5497C42.4103 15.5497 42.1106 15.6321 41.889 15.7969C41.6703 15.9616 41.5225 16.1562 41.4458 16.3807L40.0055 16.1761C40.1191 15.7784 40.3066 15.446 40.568 15.179C40.8294 14.9091 41.149 14.7074 41.5268 14.5739C41.9047 14.4375 42.3223 14.3693 42.7797 14.3693C43.095 14.3693 43.4089 14.4062 43.7214 14.4801C44.0339 14.554 44.3194 14.6761 44.5779 14.8466C44.8365 15.0142 45.0439 15.2429 45.2001 15.5327C45.3592 15.8224 45.4387 16.1847 45.4387 16.6193V21H43.9558V20.1009H43.9047C43.8109 20.2827 43.6788 20.4531 43.5083 20.6122C43.3407 20.7685 43.1291 20.8949 42.8734 20.9915C42.6206 21.0852 42.3237 21.1321 41.9828 21.1321ZM42.3833 19.9986C42.693 19.9986 42.9615 19.9375 43.1887 19.8153C43.416 19.6903 43.5907 19.5256 43.7129 19.321C43.8379 19.1165 43.9004 18.8935 43.9004 18.652V17.8807C43.8521 17.9205 43.7697 17.9574 43.6532 17.9915C43.5396 18.0256 43.4118 18.0554 43.2697 18.081C43.1277 18.1065 42.987 18.1293 42.8478 18.1491C42.7086 18.169 42.5879 18.1861 42.4856 18.2003C42.2555 18.2315 42.0495 18.2827 41.8677 18.3537C41.6859 18.4247 41.5424 18.5241 41.4373 18.652C41.3322 18.777 41.2797 18.9389 41.2797 19.1378C41.2797 19.4219 41.3833 19.6364 41.5907 19.7812C41.7981 19.9261 42.0623 19.9986 42.3833 19.9986ZM46.9899 21V14.4545H48.4856V15.5455H48.5538C48.6731 15.1676 48.8777 14.8764 49.1674 14.6719C49.46 14.4645 49.7939 14.3608 50.1689 14.3608C50.2541 14.3608 50.3493 14.3651 50.4544 14.3736C50.5623 14.3793 50.6518 14.3892 50.7228 14.4034V15.8224C50.6575 15.7997 50.5538 15.7798 50.4118 15.7628C50.2725 15.7429 50.1376 15.733 50.0069 15.733C49.7257 15.733 49.4728 15.794 49.2484 15.9162C49.0268 16.0355 48.8521 16.2017 48.7243 16.4148C48.5964 16.6278 48.5325 16.8736 48.5325 17.152V21H46.9899ZM54.3759 21.1278C53.7196 21.1278 53.1529 20.9915 52.6756 20.7188C52.2012 20.4432 51.8361 20.054 51.5804 19.5511C51.3248 19.0455 51.1969 18.4503 51.1969 17.7656C51.1969 17.0923 51.3248 16.5014 51.5804 15.9929C51.839 15.4815 52.1998 15.0838 52.6628 14.7997C53.1259 14.5128 53.6699 14.3693 54.2949 14.3693C54.6983 14.3693 55.079 14.4347 55.437 14.5653C55.7978 14.6932 56.1159 14.892 56.3915 15.1619C56.6699 15.4318 56.8887 15.7756 57.0478 16.1932C57.2069 16.608 57.2864 17.1023 57.2864 17.6761V18.1491H51.9213V17.1094H55.8077C55.8049 16.8139 55.7409 16.5511 55.6159 16.321C55.4909 16.0881 55.3162 15.9048 55.0918 15.7713C54.8702 15.6378 54.6117 15.571 54.3162 15.571C54.0009 15.571 53.7239 15.6477 53.4853 15.8011C53.2466 15.9517 53.0605 16.1506 52.927 16.3977C52.7963 16.642 52.7296 16.9105 52.7267 17.2031V18.1108C52.7267 18.4915 52.7963 18.8182 52.9355 19.0909C53.0748 19.3608 53.2694 19.5682 53.5194 19.7131C53.7694 19.8551 54.062 19.9261 54.3972 19.9261C54.6216 19.9261 54.8248 19.8949 55.0066 19.8324C55.1884 19.767 55.3461 19.6719 55.4796 19.5469C55.6131 19.4219 55.714 19.267 55.7821 19.0824L57.2225 19.2443C57.1316 19.625 56.9583 19.9574 56.7026 20.2415C56.4498 20.5227 56.1259 20.7415 55.731 20.8977C55.3361 21.0511 54.8844 21.1278 54.3759 21.1278ZM61.6362 21V12.2727H63.2172V19.6747H67.0609V21H61.6362ZM68.3649 21V14.4545H69.9075V21H68.3649ZM69.1404 13.5256C68.8961 13.5256 68.6859 13.4446 68.5098 13.2827C68.3336 13.1179 68.2456 12.9205 68.2456 12.6903C68.2456 12.4574 68.3336 12.2599 68.5098 12.098C68.6859 11.9332 68.8961 11.8509 69.1404 11.8509C69.3876 11.8509 69.5978 11.9332 69.7711 12.098C69.9473 12.2599 70.0353 12.4574 70.0353 12.6903C70.0353 12.9205 69.9473 13.1179 69.7711 13.2827C69.5978 13.4446 69.3876 13.5256 69.1404 13.5256ZM73.0364 17.1648V21H71.4938V14.4545H72.9682V15.5668H73.0449C73.1955 15.2003 73.4355 14.9091 73.7651 14.6932C74.0975 14.4773 74.508 14.3693 74.9966 14.3693C75.4483 14.3693 75.8418 14.4659 76.177 14.6591C76.5151 14.8523 76.7765 15.1321 76.9611 15.4986C77.1486 15.8651 77.2409 16.3097 77.2381 16.8324V21H75.6955V17.071C75.6955 16.6335 75.5819 16.2912 75.3546 16.044C75.1301 15.7969 74.8191 15.6733 74.4213 15.6733C74.1515 15.6733 73.9114 15.733 73.7012 15.8523C73.4938 15.9687 73.3304 16.1378 73.2111 16.3594C73.0946 16.581 73.0364 16.8494 73.0364 17.1648ZM80.2125 18.946L80.2083 17.0838H80.4554L82.8077 14.4545H84.6103L81.7168 17.6761H81.3972L80.2125 18.946ZM78.8063 21V12.2727H80.3489V21H78.8063ZM82.9142 21L80.7836 18.0213L81.8233 16.9347L84.7594 21H82.9142Z" fill="white"/>
<path d="M94.4853 10.9289C94.4853 10.038 95.5624 9.59187 96.1924 10.2218L102.263 16.2929C102.654 16.6834 102.654 17.3166 102.263 17.7071L96.1924 23.7782C95.5624 24.4081 94.4853 23.962 94.4853 23.0711L94.4853 10.9289Z" fill="#101828"/>
</g>
<defs>
<filter id="filter0_dd_1274_881" x="0" y="0" width="115" height="58" filterUnits="userSpaceOnUse" color-interpolation-filters="sRGB">
<feFlood flood-opacity="0" result="BackgroundImageFix"/>
<feColorMatrix in="SourceAlpha" type="matrix" values="0 0 0 0 0 0 0 0 0 0 0 0 0 0 0 0 0 0 127 0" result="hardAlpha"/>
<feMorphology radius="2" operator="erode" in="SourceAlpha" result="effect1_dropShadow_1274_881"/>
<feOffset dy="4"/>
<feGaussianBlur stdDeviation="3"/>
<feColorMatrix type="matrix" values="0 0 0 0 0.0627451 0 0 0 0 0.0941176 0 0 0 0 0.156863 0 0 0 0.03 0"/>
<feBlend mode="normal" in2="BackgroundImageFix" result="effect1_dropShadow_1274_881"/>
<feColorMatrix in="SourceAlpha" type="matrix" values="0 0 0 0 0 0 0 0 0 0 0 0 0 0 0 0 0 0 127 0" result="hardAlpha"/>
<feMorphology radius="4" operator="erode" in="SourceAlpha" result="effect2_dropShadow_1274_881"/>
<feOffset dy="12"/>
<feGaussianBlur stdDeviation="8"/>
<feColorMatrix type="matrix" values="0 0 0 0 0.0627451 0 0 0 0 0.0941176 0 0 0 0 0.156863 0 0 0 0.08 0"/>
<feBlend mode="normal" in2="effect1_dropShadow_1274_881" result="effect2_dropShadow_1274_881"/>
<feBlend mode="normal" in="SourceGraphic" in2="effect2_dropShadow_1274_881" result="shape"/>
</filter>
</defs>
</svg>
